<svg id="visual" viewBox="0 0 1920 1080" width="1920" height="1080" xmlns="http://www.w3.org/2000/svg" xmlns:xlink="http://www.w3.org/1999/xlink" version="1.1"><rect width="1920" height="1080" fill="#eec952"></rect><g><g transform="translate(532 782)"><path d="M59 -64.4C71.7 -46.2 74.1 -23.1 72 -2.1C69.9 18.9 63.4 37.9 50.6 62.7C37.9 87.5 18.9 118.2 -7.8 126.1C-34.6 133.9 -69.2 118.9 -89.6 94.1C-110 69.2 -116.1 34.6 -116.1 0C-116.2 -34.7 -110.1 -69.4 -89.7 -87.6C-69.4 -105.8 -34.7 -107.5 -5.8 -101.7C23.1 -95.9 46.2 -82.6 59 -64.4Z" fill="none" stroke="#f6f5f3" stroke-width="20"></path></g><g transform="translate(1728 758)"><path d="M28.3 -26.6C35.3 -21.3 38.5 -10.7 39.7 1.2C40.9 13.1 40.1 26.1 33.1 31.6C26.1 37 13.1 34.7 2 32.8C-9.2 30.8 -18.3 29.2 -24.7 23.7C-31.1 18.3 -34.8 9.2 -35.9 -1.1C-36.9 -11.3 -35.5 -22.6 -29 -27.9C-22.6 -33.1 -11.3 -32.2 -0.3 -31.9C10.7 -31.6 21.3 -31.8 28.3 -26.6Z" fill="none" stroke="#f6f5f3" stroke-width="20"></path></g><g transform="translate(1054 790)"><path d="M70.9 -73.9C85.6 -56.3 86.9 -28.1 84 -2.9C81.1 22.3 74 44.6 59.3 63.2C44.6 81.7 22.3 96.4 -4.4 100.8C-31.2 105.3 -62.4 99.5 -83.6 80.9C-104.8 62.4 -116 31.2 -113.4 2.6C-110.7 -26 -94.3 -51.9 -73.1 -69.5C-51.9 -87.1 -26 -96.3 1.1 -97.4C28.1 -98.5 56.3 -91.4 70.9 -73.9Z" fill="none" stroke="#f6f5f3" stroke-width="20"></path></g><g transform="translate(1638 228)"><path d="M36 -38.8C43 -29 42.4 -14.5 40.6 -1.8C38.8 10.8 35.6 21.7 28.6 29.6C21.7 37.6 10.8 42.8 -2.1 44.9C-14.9 46.9 -29.9 45.9 -37 37.9C-44.2 29.9 -43.5 14.9 -43.2 0.3C-42.9 -14.3 -42.9 -28.6 -35.8 -38.4C-28.6 -48.2 -14.3 -53.5 0.1 -53.6C14.5 -53.7 29 -48.6 36 -38.8Z" fill="none" stroke="#f6f5f3" stroke-width="20"></path></g><g transform="translate(965 479)"><path d="M28.1 -30.5C35.1 -21.2 38.3 -10.6 39.5 1.2C40.7 13 39.8 25.9 32.9 32.3C25.9 38.8 13 38.6 2.1 36.6C-8.8 34.5 -17.6 30.4 -24.6 24C-31.6 17.6 -36.9 8.8 -38.7 -1.9C-40.6 -12.5 -39.1 -25.1 -32.1 -34.4C-25.1 -43.8 -12.5 -49.9 -1 -49C10.6 -48 21.2 -39.9 28.1 -30.5Z" fill="none" stroke="#f6f5f3" stroke-width="20"></path></g><g transform="translate(1226 290)"><path d="M45.7 -53.1C59.7 -31.7 71.8 -15.9 72.5 0.7C73.2 17.3 62.5 34.5 48.5 50.2C34.5 65.9 17.3 80.1 -3.1 83.2C-23.4 86.2 -46.8 78.2 -63 62.5C-79.3 46.8 -88.5 23.4 -85.8 2.7C-83.1 -18 -68.6 -36 -52.3 -57.5C-36 -78.9 -18 -103.7 -1.1 -102.6C15.9 -101.5 31.7 -74.5 45.7 -53.1Z" fill="none" stroke="#f6f5f3" stroke-width="20"></path></g><g transform="translate(497 158)"><path d="M46.7 -54.4C58 -35.4 62.9 -17.7 65.3 2.5C67.8 22.6 67.8 45.2 56.5 62.9C45.2 80.7 22.6 93.5 2.3 91.2C-18.1 89 -36.2 71.6 -52.6 53.9C-69 36.2 -83.8 18.1 -85 -1.2C-86.2 -20.5 -73.8 -41 -57.4 -60C-41 -79 -20.5 -96.6 -1.4 -95.2C17.7 -93.8 35.4 -73.4 46.7 -54.4Z" fill="none" stroke="#f6f5f3" stroke-width="20"></path></g><g transform="translate(1364 822)"><path d="M58.9 -58C75.3 -42.6 86.7 -21.3 85.4 -1.3C84 18.6 69.9 37.2 53.6 49.1C37.2 60.9 18.6 66 1 65C-16.5 63.9 -33 56.7 -49.4 44.9C-65.7 33 -81.9 16.5 -82.8 -0.9C-83.8 -18.4 -69.5 -36.8 -53.1 -52.2C-36.8 -67.7 -18.4 -80.1 1.4 -81.6C21.3 -83 42.6 -73.4 58.9 -58Z" fill="none" stroke="#f6f5f3" stroke-width="20"></path></g><g transform="translate(155 918)"><path d="M34 -33.6C42.5 -25.6 46.5 -12.8 44.6 -1.9C42.7 9 34.8 18 26.4 26.5C18 35 9 43 -2.1 45.2C-13.3 47.3 -26.6 43.6 -32.5 35.1C-38.4 26.6 -36.9 13.3 -34.7 2.2C-32.6 -9 -29.7 -17.9 -23.8 -25.9C-17.9 -33.9 -9 -40.9 1.9 -42.8C12.8 -44.7 25.6 -41.6 34 -33.6Z" fill="none" stroke="#f6f5f3" stroke-width="20"></path></g><g transform="translate(160 524)"><path d="M49 -50.3C61.5 -36.6 68.2 -18.3 70.3 2.1C72.4 22.6 70.1 45.1 57.6 53.6C45.1 62.1 22.6 56.4 1.7 54.7C-19.1 53 -38.3 55.2 -51.2 46.7C-64 38.3 -70.7 19.1 -72.2 -1.5C-73.7 -22.1 -70.1 -44.3 -57.2 -58C-44.3 -71.7 -22.1 -77 -1.9 -75.1C18.3 -73.2 36.6 -64 49 -50.3Z" fill="none" stroke="#f6f5f3" stroke-width="20"></path></g><g transform="translate(486 463)"><path d="M29.7 -24.4C41.3 -18.1 55.4 -9.1 55.2 -0.2C55 8.6 40.3 17.2 28.8 23.2C17.2 29.3 8.6 32.8 -3.3 36.1C-15.1 39.4 -30.3 42.4 -39.4 36.3C-48.6 30.3 -51.8 15.1 -49.4 2.4C-46.9 -10.3 -38.9 -20.6 -29.8 -26.9C-20.6 -33.3 -10.3 -35.6 -0.6 -35C9.1 -34.4 18.1 -30.8 29.7 -24.4Z" fill="none" stroke="#f6f5f3" stroke-width="20"></path></g><g transform="translate(195 180)"><path d="M61 -63.4C77 -45.1 86.3 -22.5 86.2 -0.1C86 22.3 76.4 44.5 60.5 61.7C44.5 78.8 22.3 90.8 -1 91.8C-24.2 92.7 -48.4 82.6 -69.6 65.5C-90.8 48.4 -109.1 24.2 -109.9 -0.9C-110.8 -25.9 -94.2 -51.8 -73 -70.1C-51.8 -88.4 -25.9 -99.1 -1.7 -97.4C22.5 -95.7 45.1 -81.7 61 -63.4Z" fill="none" stroke="#f6f5f3" stroke-width="20"></path></g><g transform="translate(1513 534)"><path d="M52.7 -57.7C65.2 -40.2 70 -20.1 70.7 0.6C71.3 21.4 67.8 42.8 55.3 59.9C42.8 77.1 21.4 90 1.4 88.5C-18.6 87.1 -37.1 71.4 -51.7 54.3C-66.3 37.1 -77 18.6 -81.6 -4.6C-86.2 -27.7 -84.7 -55.5 -70.1 -72.9C-55.5 -90.3 -27.7 -97.4 -3.8 -93.6C20.1 -89.8 40.2 -75.1 52.7 -57.7Z" fill="none" stroke="#f6f5f3" stroke-width="20"></path></g><g transform="translate(893 152)"><path d="M88.1 -79.4C110 -66.2 120.7 -33.1 119 -1.7C117.3 29.7 103.1 59.3 81.2 73.5C59.3 87.8 29.7 86.6 3.7 82.9C-22.3 79.3 -44.7 73.1 -59 58.9C-73.3 44.7 -79.7 22.3 -85.1 -5.4C-90.6 -33.2 -95.1 -66.4 -80.8 -79.7C-66.4 -92.9 -33.2 -86.2 -0.1 -86.1C33.1 -86 66.2 -92.7 88.1 -79.4Z" fill="none" stroke="#f6f5f3" stroke-width="20"></path></g></g></svg>